<mxfile host="app.diagrams.net" modified="2024-01-18T20:25:28.726Z" agent="Mozilla/5.0 (Macintosh; Intel Mac OS X 10_15_7) AppleWebKit/537.36 (KHTML, like Gecko) Chrome/120.0.0.0 Safari/537.36" etag="0WEVPyTY2pFl1wQc8PGt" version="22.1.21" type="device">
  <diagram id="f106602c-feb2-e66a-4537-3a34d633f6aa" name="Page-1">
    <mxGraphModel dx="1193" dy="-69" grid="1" gridSize="10" guides="1" tooltips="1" connect="1" arrows="1" fold="1" page="1" pageScale="1" pageWidth="1169" pageHeight="827" background="none" math="0" shadow="0">
      <root>
        <mxCell id="0" />
        <mxCell id="1" parent="0" />
        <mxCell id="DY1giyl1airAK5G5eMEe-63" value="&lt;font color=&quot;#999999&quot;&gt;Reports&lt;/font&gt;&lt;br style=&quot;border-color: var(--border-color); color: rgb(158, 158, 158);&quot;&gt;&lt;span style=&quot;border-color: var(--border-color); color: rgb(158, 158, 158); font-size: 10px;&quot;&gt;Business Analysis&lt;/span&gt;" style="rounded=1;absoluteArcSize=1;arcSize=2;html=1;strokeColor=none;shadow=0;dashed=0;fontSize=12;align=left;verticalAlign=top;spacing=10;spacingTop=-4;fillColor=#dae8fc;" vertex="1" parent="1">
          <mxGeometry x="972.75" y="1200" width="110" height="130" as="geometry" />
        </mxCell>
        <mxCell id="DY1giyl1airAK5G5eMEe-62" value="&lt;font color=&quot;#999999&quot;&gt;Teams&lt;/font&gt;&lt;br style=&quot;border-color: var(--border-color); color: rgb(158, 158, 158);&quot;&gt;&lt;font color=&quot;#9e9e9e&quot;&gt;&lt;span style=&quot;font-size: 10px;&quot;&gt;Data Science, etc.&lt;/span&gt;&lt;/font&gt;" style="rounded=1;absoluteArcSize=1;arcSize=2;html=1;strokeColor=none;shadow=0;dashed=0;fontSize=12;align=left;verticalAlign=top;spacing=10;spacingTop=-4;fillColor=#dae8fc;" vertex="1" parent="1">
          <mxGeometry x="972.75" y="1050" width="110" height="130" as="geometry" />
        </mxCell>
        <mxCell id="GuzJ8BqgIlNCJu6hI-l5-1064" value="" style="strokeColor=#dddddd;fillColor=#ffffff;shadow=1;strokeWidth=1;rounded=1;absoluteArcSize=1;arcSize=2;labelPosition=center;verticalLabelPosition=middle;align=center;verticalAlign=bottom;spacingLeft=0;fontColor=#999999;fontSize=12;whiteSpace=wrap;spacingBottom=2;html=1;" parent="1" vertex="1">
          <mxGeometry x="992.75" y="1250" width="70" height="70" as="geometry" />
        </mxCell>
        <mxCell id="GuzJ8BqgIlNCJu6hI-l5-1065" value="" style="dashed=0;connectable=0;html=1;fillColor=#757575;strokeColor=none;shape=mxgraph.gcp2.report;part=1;" parent="GuzJ8BqgIlNCJu6hI-l5-1064" vertex="1">
          <mxGeometry x="0.5" width="50" height="50" relative="1" as="geometry">
            <mxPoint x="-25" y="10" as="offset" />
          </mxGeometry>
        </mxCell>
        <mxCell id="GuzJ8BqgIlNCJu6hI-l5-1066" value="" style="strokeColor=#dddddd;fillColor=#ffffff;shadow=1;strokeWidth=1;rounded=1;absoluteArcSize=1;arcSize=2;labelPosition=center;verticalLabelPosition=middle;align=center;verticalAlign=bottom;spacingLeft=0;fontColor=#999999;fontSize=12;whiteSpace=wrap;spacingBottom=2;html=1;" parent="1" vertex="1">
          <mxGeometry x="992.75" y="1100" width="70" height="70" as="geometry" />
        </mxCell>
        <mxCell id="GuzJ8BqgIlNCJu6hI-l5-1067" value="" style="dashed=0;connectable=0;html=1;fillColor=#757575;strokeColor=none;shape=mxgraph.gcp2.users;part=1;" parent="GuzJ8BqgIlNCJu6hI-l5-1066" vertex="1">
          <mxGeometry x="0.5" width="50" height="31.5" relative="1" as="geometry">
            <mxPoint x="-25" y="19.25" as="offset" />
          </mxGeometry>
        </mxCell>
        <mxCell id="DY1giyl1airAK5G5eMEe-7" value="&lt;b&gt;Google &lt;/b&gt;Cloud Platform" style="fillColor=#F6F6F6;strokeColor=none;shadow=0;gradientColor=none;fontSize=14;align=left;spacing=10;fontColor=#717171;9E9E9E;verticalAlign=top;spacingTop=-4;fontStyle=0;spacingLeft=40;html=1;" vertex="1" parent="1">
          <mxGeometry x="300" y="890" width="658" height="520" as="geometry" />
        </mxCell>
        <mxCell id="DY1giyl1airAK5G5eMEe-8" value="" style="shape=mxgraph.gcp2.google_cloud_platform;fillColor=#F6F6F6;strokeColor=none;shadow=0;gradientColor=none;" vertex="1" parent="DY1giyl1airAK5G5eMEe-7">
          <mxGeometry width="23" height="20" relative="1" as="geometry">
            <mxPoint x="20" y="10" as="offset" />
          </mxGeometry>
        </mxCell>
        <mxCell id="DY1giyl1airAK5G5eMEe-24" value="Batch" style="rounded=1;absoluteArcSize=1;arcSize=2;html=1;strokeColor=#4284F3;gradientColor=none;shadow=0;dashed=1;fontSize=12;fontColor=#9E9E9E;align=left;verticalAlign=top;spacing=10;spacingTop=-4;fillColor=none;dashPattern=1 2;strokeWidth=2;" vertex="1" parent="DY1giyl1airAK5G5eMEe-7">
          <mxGeometry x="-270" y="170" width="490" height="190" as="geometry" />
        </mxCell>
        <mxCell id="DY1giyl1airAK5G5eMEe-26" value="API&lt;br&gt;&lt;span style=&quot;font-size: 10px;&quot;&gt;Third-part Interface&lt;/span&gt;" style="rounded=1;absoluteArcSize=1;arcSize=2;html=1;strokeColor=none;gradientColor=none;shadow=0;dashed=0;fontSize=12;fontColor=#9E9E9E;align=left;verticalAlign=top;spacing=10;spacingTop=-4;fillColor=#EFEBE9;" vertex="1" parent="DY1giyl1airAK5G5eMEe-7">
          <mxGeometry x="-120" y="198.5" width="110" height="130" as="geometry" />
        </mxCell>
        <mxCell id="DY1giyl1airAK5G5eMEe-27" value="" style="strokeColor=#dddddd;fillColor=#ffffff;shadow=1;strokeWidth=1;rounded=1;absoluteArcSize=1;arcSize=2;labelPosition=center;verticalLabelPosition=middle;align=center;verticalAlign=bottom;spacingLeft=0;fontColor=#999999;fontSize=12;whiteSpace=wrap;spacingBottom=2;html=1;" vertex="1" parent="DY1giyl1airAK5G5eMEe-7">
          <mxGeometry x="-100" y="247.5" width="70" height="69" as="geometry" />
        </mxCell>
        <mxCell id="DY1giyl1airAK5G5eMEe-28" value="" style="dashed=0;connectable=0;html=1;fillColor=#757575;strokeColor=none;shape=mxgraph.gcp2.database;part=1;" vertex="1" parent="DY1giyl1airAK5G5eMEe-27">
          <mxGeometry x="0.5" width="50" height="45" relative="1" as="geometry">
            <mxPoint x="-25" y="12.5" as="offset" />
          </mxGeometry>
        </mxCell>
        <mxCell id="DY1giyl1airAK5G5eMEe-30" value="" style="strokeColor=#dddddd;shadow=1;strokeWidth=1;rounded=1;absoluteArcSize=1;arcSize=2;" vertex="1" parent="DY1giyl1airAK5G5eMEe-7">
          <mxGeometry x="30" y="266" width="160" height="60" as="geometry" />
        </mxCell>
        <mxCell id="DY1giyl1airAK5G5eMEe-31" value="&lt;font color=&quot;#000000&quot;&gt;Serverless Function&lt;/font&gt;&lt;br&gt;Cloud Function" style="editableCssRules=.*;html=1;fontColor=#999999;shape=image;verticalLabelPosition=middle;verticalAlign=middle;labelPosition=right;align=left;spacingLeft=2;part=1;points=[];imageAspect=0;image=data:image/svg+xml,PHN2ZyB4bWxucz0iaHR0cDovL3d3dy53My5vcmcvMjAwMC9zdmciIHhtbG5zOnY9Imh0dHBzOi8vdmVjdGEuaW8vbmFubyIgd2lkdGg9IjIwIiBoZWlnaHQ9IjE2IiB2aWV3Qm94PSIwIDAgMjAgMTYiPiYjeGE7CTxzdHlsZSB0eXBlPSJ0ZXh0L2NzcyI+LnN0MCB7IGZpbGw6IG5vbmU7IH0gLnN0MSB7IGZpbGw6IG5vbmU7IH0gLnN0MiB7IGZpbGw6IG5vbmU7IH0gLnN0MyB7IGZpbGw6IHJnYigyNTUsIDI1NSwgMjU1KTsgfSA8L3N0eWxlPiYjeGE7CTxwYXRoIGNsYXNzPSJzdDIiIGQ9Ik0wIDBoMjB2N0gweiIvPiYjeGE7CTxwYXRoIGNsYXNzPSJzdDEiIGQ9Ik0xOCAwaDJ2N2gtMnoiLz4mI3hhOwk8cGF0aCBjbGFzcz0ic3QwIiBkPSJNMTggN2wyLTdoLTJ6Ii8+JiN4YTsJPHBhdGggY2xhc3M9InN0MSIgZD0iTTAgMGgydjdIMHoiLz4mI3hhOwk8ZyBjbGFzcz0ic3QzIj4mI3hhOwkJPHBhdGggZD0iTTQgM2g2djFINHoiLz4mI3hhOwkJPHJlY3QgeD0iMTMiIHk9IjIiIHdpZHRoPSIzIiBoZWlnaHQ9IjMiIHJ4PSIxLjUiLz4mI3hhOwk8L2c+JiN4YTsJPHBhdGggY2xhc3M9InN0MiIgZD0iTTAgOWgyMHY3SDB6Ii8+JiN4YTsJPHBhdGggY2xhc3M9InN0MSIgZD0iTTE4IDloMnY3aC0yeiIvPiYjeGE7CTxwYXRoIGNsYXNzPSJzdDAiIGQ9Ik0xOCAxNmwyLTdoLTJ6Ii8+JiN4YTsJPHBhdGggY2xhc3M9InN0MSIgZD0iTTAgOWgydjdIMHoiLz4mI3hhOwk8ZyBjbGFzcz0ic3QzIj4mI3hhOwkJPHBhdGggZD0iTTQgMTJoNnYxSDR6Ii8+JiN4YTsJCTxyZWN0IHg9IjEzIiB5PSIxMSIgd2lkdGg9IjMiIGhlaWdodD0iMyIgcng9IjEuNSIvPiYjeGE7CTwvZz4mI3hhOzwvc3ZnPg==;" vertex="1" parent="DY1giyl1airAK5G5eMEe-30">
          <mxGeometry width="30" height="24" relative="1" as="geometry">
            <mxPoint x="15" y="18" as="offset" />
          </mxGeometry>
        </mxCell>
        <mxCell id="DY1giyl1airAK5G5eMEe-43" value="" style="editableCssRules=.*;html=1;shape=image;verticalLabelPosition=bottom;labelBackgroundColor=#ffffff;verticalAlign=top;aspect=fixed;imageAspect=0;image=data:image/svg+xml,PHN2ZyB4bWxucz0iaHR0cDovL3d3dy53My5vcmcvMjAwMC9zdmciIHhtbG5zOnY9Imh0dHBzOi8vdmVjdGEuaW8vbmFubyIgd2lkdGg9IjIwIiBoZWlnaHQ9IjE5Ljk4OTk5OTc3MTExODE2NCIgdmlld0JveD0iMCAwIDIwIDE5Ljk4OTk5OTc3MTExODE2NCI+JiN4YTsJPHN0eWxlIHR5cGU9InRleHQvY3NzIj4mI3hhOwkuc3Qwe2ZpbGw6IzQyODVmNDt9JiN4YTsJLnN0MXtmaWxsOiM2NjlkZjY7fSYjeGE7CS5zdDJ7ZmlsbDojYWVjYmZhO30mI3hhOwk8L3N0eWxlPiYjeGE7CTxwYXRoIGNsYXNzPSJzdDEiIGQ9Ik0zIDMuOTlMMCA2LjQydjcuMTNsMyAyLjQ0eiIvPiYjeGE7CTxwYXRoIGNsYXNzPSJzdDAiIGQ9Ik0zIDMuOTlsLTMgNCAzLTJ6bS0zIDhsMyA0di0yeiIvPiYjeGE7CTxwYXRoIGNsYXNzPSJzdDIiIGQ9Ik0wIDE1Ljk5bDQgNCAyLTItNi02em0uMDEtOEw1Ljk5IDJsLTItMkwwIDMuOTl6Ii8+JiN4YTsJPHBhdGggY2xhc3M9InN0MSIgZD0iTTE3IDE2bDMtMi40MlY2LjQ0TDE3IDR6Ii8+JiN4YTsJPHBhdGggY2xhc3M9InN0MCIgZD0iTTE3IDE2bDMtNC0zIDJ6bTMtOGwtMy00djJ6Ii8+JiN4YTsJPGcgY2xhc3M9InN0MiI+JiN4YTsJCTxwYXRoIGQ9Ik0yMCA0bC00LTQtMiAyIDYgNnptLS4wMSA4bC01Ljk4IDUuOTkgMiAyTDIwIDE2eiIvPiYjeGE7CQk8Y2lyY2xlIGN4PSI2IiBjeT0iOS45OSIgcj0iMSIvPiYjeGE7CQk8Y2lyY2xlIGN4PSIxMCIgY3k9IjkuOTkiIHI9IjEiLz4mI3hhOwkJPGNpcmNsZSBjeD0iMTMuOTkiIGN5PSI5Ljk5IiByPSIxIi8+JiN4YTsJPC9nPiYjeGE7PC9zdmc+;" vertex="1" parent="DY1giyl1airAK5G5eMEe-30">
          <mxGeometry x="16.30434782608695" y="15" width="26.08695652173913" height="26.08695652173913" as="geometry" />
        </mxCell>
        <mxCell id="DY1giyl1airAK5G5eMEe-32" value="" style="strokeColor=#dddddd;shadow=1;strokeWidth=1;rounded=1;absoluteArcSize=1;arcSize=2;" vertex="1" parent="DY1giyl1airAK5G5eMEe-7">
          <mxGeometry x="30.630000000000003" y="180" width="158.75" height="60" as="geometry" />
        </mxCell>
        <mxCell id="DY1giyl1airAK5G5eMEe-33" value="&lt;font color=&quot;#000000&quot;&gt;Scheduler&lt;/font&gt;&lt;br&gt;Cloud Scheduler" style="editableCssRules=.*;html=1;fontColor=#999999;shape=image;verticalLabelPosition=middle;verticalAlign=middle;labelPosition=right;align=left;spacingLeft=20;part=1;points=[];imageAspect=0;image=data:image/svg+xml,PHN2ZyB4bWxucz0iaHR0cDovL3d3dy53My5vcmcvMjAwMC9zdmciIHhtbG5zOnY9Imh0dHBzOi8vdmVjdGEuaW8vbmFubyIgd2lkdGg9IjE0LjUxOTk5OTUwNDA4OTM1NSIgaGVpZ2h0PSIyMCIgdmlld0JveD0iMCAwIDE0LjUxOTk5OTUwNDA4OTM1NSAyMCI+JiN4YTsJPHN0eWxlIHR5cGU9InRleHQvY3NzIj4uc3QwIHsgZmlsbC1ydWxlOiBldmVub2RkOyB9IC5zdDEgeyBmaWxsOiBub25lOyB9IC5zdDIgeyBmaWxsOiBub25lOyB9IC5zdDMgeyBmaWxsOiBub25lOyB9IDwvc3R5bGU+JiN4YTsJPGcgY2xhc3M9InN0MCI+JiN4YTsJCTxwYXRoIGNsYXNzPSJzdDEiIGQ9Ik03LjM3IDIuMDNsLTEuNzIuOTYgMS41MiAxLjUtLjAyIDEuNzMgMS4wMi4wMS4wMi0xLjczIDQuMjQgMi41Ni0uMDEgMS4wNyAxLjc3LjAzVjYuMTFMOS4wNSAzLjA0bC0uMjctLjk0eiIvPiYjeGE7CQk8cGF0aCBjbGFzcz0ic3QyIiBkPSJNNy4zNiAyLjAzbC0xLjQyLjM1LS4yOS42MUwuMzkgNS45Mi4zNiA3Ljk3IDIuMTQgOGwuMDItMS4wNyA0LjMxLTIuNDUtLjAyIDEuNzMuODYuMDEuMDYtNC4xOXoiLz4mI3hhOwkJPGcgY2xhc3M9InN0MSI+JiN4YTsJCQk8cGF0aCBkPSJNNy4zNiAyLjAzTDMuOTUgMCAyLjIxLjk1bDMuNDQgMi4wNCAxLjcyLS45NnptLjcxIDExLjc2bC0xLjcyLS4wMi0uMDIgMS43Mi44MiAyLjQ4IDEuNDItLjEyLjI5LS44NSA1LjI3LTIuOTMuMDMtMi4wOS0xLjc5LS4wMi0uMDIgMS4xLTQuMyAyLjQ1eiIvPiYjeGE7CQkJPHBhdGggZD0iTTcuMTUgMTcuOTdsLTMuNDYgMS45NGgtLjA1bC0xLjY2LS45OSAzLjQ5LTEuOTYgMS42OCAxLjAxeiIvPiYjeGE7CQk8L2c+JiN4YTsJCTxwYXRoIGNsYXNzPSJzdDMiIGQ9Ik0xMC44OC4wOWgtLjA1TDcuMzcgMi4wM2wxLjY4IDEuMDEgMy40OS0xLjk2ek0xMC42MiAyMGgtLjA1bC0zLjQyLTIuMDNoMCAwIDBsMS43Mi0uOTYgMy40NCAyLjA0eiIvPiYjeGE7CQk8cGF0aCBjbGFzcz0ic3QyIiBkPSJNLjMzIDEzLjg5di0yaDEuNzZsLS4wMSAxLjA0IDQuMjUgMi41Ni4wMi0xLjcyLjg2LjAxLS4wNiA0LjE4LTEuNjgtMXoiLz4mI3hhOwk8L2c+JiN4YTsJPGNpcmNsZSBjbGFzcz0ic3QyIiBjeD0iMTMuMzgiIGN5PSIxMC4wNCIgcj0iMS4xNCIvPiYjeGE7CTxjaXJjbGUgY2xhc3M9InN0MiIgY3g9IjEuMTQiIGN5PSI5Ljg4IiByPSIxLjE0Ii8+JiN4YTsJPGNpcmNsZSBjbGFzcz0ic3QyIiBjeD0iNy4zMiIgY3k9IjcuOTkiIHI9IjEuMTQiLz4mI3hhOwk8Y2lyY2xlIGNsYXNzPSJzdDIiIGN4PSI3LjIzIiBjeT0iMTIiIHI9IjEuMTQiLz4mI3hhOzwvc3ZnPg==;" vertex="1" parent="DY1giyl1airAK5G5eMEe-32">
          <mxGeometry width="22" height="30" relative="1" as="geometry">
            <mxPoint x="19" y="15" as="offset" />
          </mxGeometry>
        </mxCell>
        <mxCell id="DY1giyl1airAK5G5eMEe-39" value="" style="editableCssRules=.*;html=1;shape=image;verticalLabelPosition=bottom;labelBackgroundColor=#ffffff;verticalAlign=top;aspect=fixed;imageAspect=0;image=data:image/svg+xml,PHN2ZyB4bWxucz0iaHR0cDovL3d3dy53My5vcmcvMjAwMC9zdmciIHhtbG5zOnY9Imh0dHBzOi8vdmVjdGEuaW8vbmFubyIgd2lkdGg9IjM2MC4zMDM3NjY4NjA4MzYzIiBoZWlnaHQ9IjM3OC4wNTExNTgwNzc0MDg4IiB2aWV3Qm94PSItMC4wMDAxNjI0MjExNDM2MTM3NTU3IC0wLjAwMDEwMDAwNTk0OTIwNzExNTkyIDk1LjMzMDI2MTIzMDQ2ODc1IDEwMC4wMjYxMDAxNTg2OTE0Ij4mI3hhOzxzdHlsZSB0eXBlPSJ0ZXh0L2NzcyI+JiN4YTsJLnN0MHtmaWxsOiM0Mjg1ZjQ7fSYjeGE7CS5zdDF7ZmlsbDojYWVjYmZhO30mI3hhOwkuc3Qye2ZpbGw6IzY2OWRmNjt9JiN4YTs8L3N0eWxlPiYjeGE7CTxwYXRoIGNsYXNzPSJzdDAiIGQ9Ik03OS45NzEgNzcuNzE1bC03LjM1OSA3LjQ4OCA4LjYzOSA4LjQ5IDcuMzU5LTcuNDg4em0tNjUuMDk2LjA2MWwtOC42NDEgOC40OTIgNy4zNjEgNy40ODggOC42MzktOC40OXoiLz4mI3hhOwk8cGF0aCBjbGFzcz0ic3QxIiBkPSJNNzkuNTUzLjIyMWE1LjI1IDUuMjUgMCAwIDAtMy42NiA4Ljk4NEw4Ni4zODkgMTkuNThhNS4yNSA1LjI1IDAgMCAwIDguOTQxLTMuNzY1IDUuMjUgNS4yNSAwIDAgMC0xLjU2LTMuNzA0TDgzLjI3NSAxLjczOEE1LjI1IDUuMjUgMCAwIDAgNzkuNTUzLjIyMXpNMTUuOTE2IDBhNS4yNSA1LjI1IDAgMCAwLTMuNzIzIDEuNTE2TDEuNjk5IDExLjg5MWE1LjI1IDUuMjUgMCAwIDAtLjA0MyA3LjQyNCA1LjI1IDUuMjUgMCAwIDAgNy40MjQuMDQzTDE5LjU3NiA4Ljk4MkE1LjI1IDUuMjUgMCAwIDAgMTUuOTE2IDB6Ii8+JiN4YTsJPHBhdGggY2xhc3M9InN0MCIgZD0iTTQ4LjEzOCAyNi4yNGMxMy4zNDcgMCAyNS40MzIgMTEuMTM2IDI1LjMxIDI2LjQ4MSAwIDE1LjExLTEyLjI2NyAyNS42NzMtMjUuMTg5IDI1LjY3My0xMS4xNDkgMC0xOC4zMTctNS4xNzEtMjEuOTYtMTAuNzM4bDIxLjgzOS0xNS4wOTd6Ii8+JiN4YTsJPHBhdGggY2xhc3M9InN0MiIgZD0iTTgxLjI1IDkzLjY5M2w0LjY2NCA0LjU4NmE1LjI1IDUuMjUgMCAxIDAgNy4zNjEtNy40OWwtNC42NjYtNC41ODR6TTYuMjM0IDg2LjI2OEwxLjU3IDkwLjg1MWE1LjI1IDUuMjUgMCAwIDAtLjA2NSA3LjQyNCA1LjI1IDUuMjUgMCAwIDAgNy40MjQuMDY0bDQuNjY2LTQuNTg0ek00Ny4zNzEgNS41NzhDMjEuMzQ5IDUuNTc4LjE0NiAyNi43NzkuMTQ2IDUyLjgwMXMyMS4yMDMgNDcuMjI1IDQ3LjIyNSA0Ny4yMjUgNDcuMjI1LTIxLjIwMyA0Ny4yMjUtNDcuMjI1UzczLjM5MyA1LjU3OCA0Ny4zNzEgNS41Nzh6bTAgMTBhMzcuMTUgMzcuMTUgMCAwIDEgMzcuMjI1IDM3LjIyM2MwIDIwLjYxNy0xNi42MDcgMzcuMjI1LTM3LjIyNSAzNy4yMjVTMTAuMTQ2IDczLjQxOCAxMC4xNDYgNTIuODAxYTM3LjE1IDM3LjE1IDAgMCAxIDM3LjIyNS0zNy4yMjN6Ii8+JiN4YTs8L3N2Zz4=;" vertex="1" parent="DY1giyl1airAK5G5eMEe-32">
          <mxGeometry x="18.75" y="15" width="28.5" height="30" as="geometry" />
        </mxCell>
        <mxCell id="DY1giyl1airAK5G5eMEe-25" style="edgeStyle=orthogonalEdgeStyle;rounded=0;html=1;dashed=0;labelBackgroundColor=none;startArrow=none;startFill=0;startSize=4;endArrow=blockThin;endFill=1;endSize=4;strokeColor=#4284F3;strokeWidth=2;fontSize=12;exitX=1;exitY=0.75;exitDx=0;exitDy=0;entryX=0;entryY=0.5;entryDx=0;entryDy=0;" edge="1" parent="DY1giyl1airAK5G5eMEe-7" source="DY1giyl1airAK5G5eMEe-26" target="DY1giyl1airAK5G5eMEe-30">
          <mxGeometry relative="1" as="geometry">
            <Array as="points" />
          </mxGeometry>
        </mxCell>
        <mxCell id="DY1giyl1airAK5G5eMEe-29" style="edgeStyle=orthogonalEdgeStyle;rounded=0;html=1;dashed=0;labelBackgroundColor=none;startArrow=none;startFill=0;startSize=4;endArrow=blockThin;endFill=1;endSize=4;strokeColor=#4284F3;strokeWidth=2;fontSize=12;exitX=0.5;exitY=1;exitDx=0;exitDy=0;entryX=0.5;entryY=0;entryDx=0;entryDy=0;" edge="1" parent="DY1giyl1airAK5G5eMEe-7" source="DY1giyl1airAK5G5eMEe-32" target="DY1giyl1airAK5G5eMEe-30">
          <mxGeometry relative="1" as="geometry">
            <Array as="points" />
          </mxGeometry>
        </mxCell>
        <mxCell id="DY1giyl1airAK5G5eMEe-34" value="" style="aspect=fixed;sketch=0;html=1;dashed=0;whitespace=wrap;fillColor=#2875E2;strokeColor=#ffffff;points=[[0.005,0.63,0],[0.1,0.2,0],[0.9,0.2,0],[0.5,0,0],[0.995,0.63,0],[0.72,0.99,0],[0.5,1,0],[0.28,0.99,0]];shape=mxgraph.kubernetes.icon2;kubernetesLabel=1;prIcon=api" vertex="1" parent="DY1giyl1airAK5G5eMEe-7">
          <mxGeometry x="-195.25" y="198.5" width="50" height="48" as="geometry" />
        </mxCell>
        <mxCell id="DY1giyl1airAK5G5eMEe-35" value="NFe Database&lt;br&gt;&lt;font style=&quot;font-size: 10px&quot;&gt;Databases&lt;/font&gt;" style="rounded=1;absoluteArcSize=1;arcSize=2;html=1;strokeColor=none;gradientColor=none;shadow=0;dashed=0;fontSize=12;fontColor=#9E9E9E;align=left;verticalAlign=top;spacing=10;spacingTop=-4;fillColor=#EFEBE9;" vertex="1" parent="DY1giyl1airAK5G5eMEe-7">
          <mxGeometry x="-255.25" y="198.5" width="110" height="130" as="geometry" />
        </mxCell>
        <mxCell id="DY1giyl1airAK5G5eMEe-36" value="" style="strokeColor=#dddddd;fillColor=#ffffff;shadow=1;strokeWidth=1;rounded=1;absoluteArcSize=1;arcSize=2;labelPosition=center;verticalLabelPosition=middle;align=center;verticalAlign=bottom;spacingLeft=0;fontColor=#999999;fontSize=12;whiteSpace=wrap;spacingBottom=2;html=1;" vertex="1" parent="DY1giyl1airAK5G5eMEe-7">
          <mxGeometry x="-235.25" y="246.5" width="70" height="69" as="geometry" />
        </mxCell>
        <mxCell id="DY1giyl1airAK5G5eMEe-37" value="" style="dashed=0;connectable=0;html=1;fillColor=#757575;strokeColor=none;shape=mxgraph.gcp2.database;part=1;" vertex="1" parent="DY1giyl1airAK5G5eMEe-36">
          <mxGeometry x="0.5" width="50" height="45" relative="1" as="geometry">
            <mxPoint x="-25" y="12.5" as="offset" />
          </mxGeometry>
        </mxCell>
        <mxCell id="DY1giyl1airAK5G5eMEe-40" value="" style="strokeColor=#dddddd;shadow=1;strokeWidth=1;rounded=1;absoluteArcSize=1;arcSize=2;" vertex="1" parent="DY1giyl1airAK5G5eMEe-7">
          <mxGeometry x="234.75" y="266" width="158.75" height="60" as="geometry" />
        </mxCell>
        <mxCell id="DY1giyl1airAK5G5eMEe-41" value="&lt;font color=&quot;#000000&quot;&gt;Storage&lt;/font&gt;&lt;br&gt;BigQuery" style="editableCssRules=.*;html=1;fontColor=#999999;shape=image;verticalLabelPosition=middle;verticalAlign=middle;labelPosition=right;align=left;spacingLeft=20;part=1;points=[];imageAspect=0;image=data:image/svg+xml,PHN2ZyB4bWxucz0iaHR0cDovL3d3dy53My5vcmcvMjAwMC9zdmciIHhtbG5zOnY9Imh0dHBzOi8vdmVjdGEuaW8vbmFubyIgd2lkdGg9IjIwIiBoZWlnaHQ9IjE2IiB2aWV3Qm94PSIwIDAgMjAgMTYiPiYjeGE7CTxzdHlsZSB0eXBlPSJ0ZXh0L2NzcyI+LnN0MCB7IGZpbGw6IG5vbmU7IH0gLnN0MSB7IGZpbGw6IG5vbmU7IH0gLnN0MiB7IGZpbGw6IG5vbmU7IH0gLnN0MyB7IGZpbGw6IHJnYigyNTUsIDI1NSwgMjU1KTsgfSA8L3N0eWxlPiYjeGE7CTxwYXRoIGNsYXNzPSJzdDIiIGQ9Ik0wIDBoMjB2N0gweiIvPiYjeGE7CTxwYXRoIGNsYXNzPSJzdDEiIGQ9Ik0xOCAwaDJ2N2gtMnoiLz4mI3hhOwk8cGF0aCBjbGFzcz0ic3QwIiBkPSJNMTggN2wyLTdoLTJ6Ii8+JiN4YTsJPHBhdGggY2xhc3M9InN0MSIgZD0iTTAgMGgydjdIMHoiLz4mI3hhOwk8ZyBjbGFzcz0ic3QzIj4mI3hhOwkJPHBhdGggZD0iTTQgM2g2djFINHoiLz4mI3hhOwkJPHJlY3QgeD0iMTMiIHk9IjIiIHdpZHRoPSIzIiBoZWlnaHQ9IjMiIHJ4PSIxLjUiLz4mI3hhOwk8L2c+JiN4YTsJPHBhdGggY2xhc3M9InN0MiIgZD0iTTAgOWgyMHY3SDB6Ii8+JiN4YTsJPHBhdGggY2xhc3M9InN0MSIgZD0iTTE4IDloMnY3aC0yeiIvPiYjeGE7CTxwYXRoIGNsYXNzPSJzdDAiIGQ9Ik0xOCAxNmwyLTdoLTJ6Ii8+JiN4YTsJPHBhdGggY2xhc3M9InN0MSIgZD0iTTAgOWgydjdIMHoiLz4mI3hhOwk8ZyBjbGFzcz0ic3QzIj4mI3hhOwkJPHBhdGggZD0iTTQgMTJoNnYxSDR6Ii8+JiN4YTsJCTxyZWN0IHg9IjEzIiB5PSIxMSIgd2lkdGg9IjMiIGhlaWdodD0iMyIgcng9IjEuNSIvPiYjeGE7CTwvZz4mI3hhOzwvc3ZnPg==;" vertex="1" parent="DY1giyl1airAK5G5eMEe-40">
          <mxGeometry width="30" height="24" relative="1" as="geometry">
            <mxPoint x="15" y="18" as="offset" />
          </mxGeometry>
        </mxCell>
        <mxCell id="DY1giyl1airAK5G5eMEe-49" value="" style="editableCssRules=.*;html=1;shape=image;verticalLabelPosition=bottom;labelBackgroundColor=#ffffff;verticalAlign=top;aspect=fixed;imageAspect=0;image=data:image/svg+xml,PHN2ZyB4bWxucz0iaHR0cDovL3d3dy53My5vcmcvMjAwMC9zdmciIHhtbG5zOnY9Imh0dHBzOi8vdmVjdGEuaW8vbmFubyIgd2lkdGg9IjIwLjAwMTA0NTIyNzA1MDc4IiBoZWlnaHQ9IjIwLjAwMTA0NTIyNzA1MDc4IiBmaWxsLXJ1bGU9ImV2ZW5vZGQiIHZpZXdCb3g9IjAgMCAyMC4wMDEwNDUyMjcwNTA3OCAyMC4wMDEwNDUyMjcwNTA3OCI+JiN4YTsJPHN0eWxlIHR5cGU9InRleHQvY3NzIj4mI3hhOwkuc3Qwe2ZpbGw6I2FlY2JmYTt9JiN4YTsJLnN0MXtmaWxsOiM2NjlkZjY7fSYjeGE7CS5zdDJ7ZmlsbDojNDI4NWY0O30mI3hhOwk8L3N0eWxlPiYjeGE7CTxwYXRoIGNsYXNzPSJzdDAiIGQ9Ik00LjczIDguODN2Mi42M2E0LjkxIDQuOTEgMCAwIDAgMS43MSAxLjc0VjguODN6Ii8+JiN4YTsJPHBhdGggY2xhc3M9InN0MSIgZD0iTTcuODkgNi40MXY3LjUzQTcuNjIgNy42MiAwIDAgMCA5IDE0YTggOCAwIDAgMCAxIDBWNi40MXoiLz4mI3hhOwk8cGF0aCBjbGFzcz0ic3QwIiBkPSJNMTEuNjQgOS44NnYzLjI5YTUgNSAwIDAgMCAxLjctMS44MlY5Ljg2eiIvPiYjeGE7CTxwYXRoIGNsYXNzPSJzdDIiIGQ9Ik0xNS43NCAxNC4zMmwtMS40MiAxLjQyYS40Mi40MiAwIDAgMCAwIC42bDMuNTQgMy41NGEuNDIuNDIgMCAwIDAgLjU5IDBsMS40My0xLjQzYS40Mi40MiAwIDAgMCAwLS41OWwtMy41NC0zLjU0YS40Mi40MiAwIDAgMC0uNiAwIi8+JiN4YTsJPHBhdGggY2xhc3M9InN0MSIgZD0iTTkgMGE5IDkgMCAxIDAgMCAxOEE5IDkgMCAxIDAgOSAwbTAgMTUuNjlhNi42OCA2LjY4IDAgMCAxIC4wMDctMTMuMzYgNi42OCA2LjY4IDAgMCAxIDQuNzI3IDExLjQwM0E2LjY4IDYuNjggMCAwIDEgOSAxNS42OSIvPiYjeGE7PC9zdmc+;" vertex="1" parent="DY1giyl1airAK5G5eMEe-40">
          <mxGeometry x="20" y="11.089999999999918" width="30" height="30" as="geometry" />
        </mxCell>
        <mxCell id="DY1giyl1airAK5G5eMEe-45" style="edgeStyle=orthogonalEdgeStyle;rounded=0;html=1;dashed=0;labelBackgroundColor=none;startArrow=none;startFill=0;startSize=4;endArrow=blockThin;endFill=1;endSize=4;strokeColor=#4284F3;strokeWidth=2;fontSize=12;exitX=1;exitY=0.75;exitDx=0;exitDy=0;entryX=0;entryY=0.75;entryDx=0;entryDy=0;" edge="1" parent="DY1giyl1airAK5G5eMEe-7" source="DY1giyl1airAK5G5eMEe-35" target="DY1giyl1airAK5G5eMEe-26">
          <mxGeometry relative="1" as="geometry">
            <Array as="points" />
            <mxPoint y="306" as="sourcePoint" />
            <mxPoint x="40" y="306" as="targetPoint" />
          </mxGeometry>
        </mxCell>
        <mxCell id="DY1giyl1airAK5G5eMEe-47" style="edgeStyle=orthogonalEdgeStyle;rounded=0;html=1;dashed=0;labelBackgroundColor=none;startArrow=none;startFill=0;startSize=4;endArrow=blockThin;endFill=1;endSize=4;strokeColor=#4284F3;strokeWidth=2;fontSize=12;exitX=1;exitY=0.5;exitDx=0;exitDy=0;entryX=0;entryY=0.5;entryDx=0;entryDy=0;" edge="1" parent="DY1giyl1airAK5G5eMEe-7" source="DY1giyl1airAK5G5eMEe-30" target="DY1giyl1airAK5G5eMEe-40">
          <mxGeometry relative="1" as="geometry">
            <Array as="points" />
            <mxPoint y="306" as="sourcePoint" />
            <mxPoint x="40" y="306" as="targetPoint" />
          </mxGeometry>
        </mxCell>
        <mxCell id="DY1giyl1airAK5G5eMEe-50" value="" style="strokeColor=#dddddd;shadow=1;strokeWidth=1;rounded=1;absoluteArcSize=1;arcSize=2;" vertex="1" parent="DY1giyl1airAK5G5eMEe-7">
          <mxGeometry x="234.75" y="50" width="158.75" height="60" as="geometry" />
        </mxCell>
        <mxCell id="DY1giyl1airAK5G5eMEe-51" value="&lt;font color=&quot;#000000&quot;&gt;IAM&lt;/font&gt;&lt;br&gt;Identity Manager" style="editableCssRules=.*;html=1;fontColor=#999999;shape=image;verticalLabelPosition=middle;verticalAlign=middle;labelPosition=right;align=left;spacingLeft=20;part=1;points=[];imageAspect=0;image=data:image/svg+xml,PHN2ZyB4bWxucz0iaHR0cDovL3d3dy53My5vcmcvMjAwMC9zdmciIHhtbG5zOnY9Imh0dHBzOi8vdmVjdGEuaW8vbmFubyIgd2lkdGg9IjE0LjUxOTk5OTUwNDA4OTM1NSIgaGVpZ2h0PSIyMCIgdmlld0JveD0iMCAwIDE0LjUxOTk5OTUwNDA4OTM1NSAyMCI+JiN4YTsJPHN0eWxlIHR5cGU9InRleHQvY3NzIj4uc3QwIHsgZmlsbC1ydWxlOiBldmVub2RkOyB9IC5zdDEgeyBmaWxsOiBub25lOyB9IC5zdDIgeyBmaWxsOiBub25lOyB9IC5zdDMgeyBmaWxsOiBub25lOyB9IDwvc3R5bGU+JiN4YTsJPGcgY2xhc3M9InN0MCI+JiN4YTsJCTxwYXRoIGNsYXNzPSJzdDEiIGQ9Ik03LjM3IDIuMDNsLTEuNzIuOTYgMS41MiAxLjUtLjAyIDEuNzMgMS4wMi4wMS4wMi0xLjczIDQuMjQgMi41Ni0uMDEgMS4wNyAxLjc3LjAzVjYuMTFMOS4wNSAzLjA0bC0uMjctLjk0eiIvPiYjeGE7CQk8cGF0aCBjbGFzcz0ic3QyIiBkPSJNNy4zNiAyLjAzbC0xLjQyLjM1LS4yOS42MUwuMzkgNS45Mi4zNiA3Ljk3IDIuMTQgOGwuMDItMS4wNyA0LjMxLTIuNDUtLjAyIDEuNzMuODYuMDEuMDYtNC4xOXoiLz4mI3hhOwkJPGcgY2xhc3M9InN0MSI+JiN4YTsJCQk8cGF0aCBkPSJNNy4zNiAyLjAzTDMuOTUgMCAyLjIxLjk1bDMuNDQgMi4wNCAxLjcyLS45NnptLjcxIDExLjc2bC0xLjcyLS4wMi0uMDIgMS43Mi44MiAyLjQ4IDEuNDItLjEyLjI5LS44NSA1LjI3LTIuOTMuMDMtMi4wOS0xLjc5LS4wMi0uMDIgMS4xLTQuMyAyLjQ1eiIvPiYjeGE7CQkJPHBhdGggZD0iTTcuMTUgMTcuOTdsLTMuNDYgMS45NGgtLjA1bC0xLjY2LS45OSAzLjQ5LTEuOTYgMS42OCAxLjAxeiIvPiYjeGE7CQk8L2c+JiN4YTsJCTxwYXRoIGNsYXNzPSJzdDMiIGQ9Ik0xMC44OC4wOWgtLjA1TDcuMzcgMi4wM2wxLjY4IDEuMDEgMy40OS0xLjk2ek0xMC42MiAyMGgtLjA1bC0zLjQyLTIuMDNoMCAwIDBsMS43Mi0uOTYgMy40NCAyLjA0eiIvPiYjeGE7CQk8cGF0aCBjbGFzcz0ic3QyIiBkPSJNLjMzIDEzLjg5di0yaDEuNzZsLS4wMSAxLjA0IDQuMjUgMi41Ni4wMi0xLjcyLjg2LjAxLS4wNiA0LjE4LTEuNjgtMXoiLz4mI3hhOwk8L2c+JiN4YTsJPGNpcmNsZSBjbGFzcz0ic3QyIiBjeD0iMTMuMzgiIGN5PSIxMC4wNCIgcj0iMS4xNCIvPiYjeGE7CTxjaXJjbGUgY2xhc3M9InN0MiIgY3g9IjEuMTQiIGN5PSI5Ljg4IiByPSIxLjE0Ii8+JiN4YTsJPGNpcmNsZSBjbGFzcz0ic3QyIiBjeD0iNy4zMiIgY3k9IjcuOTkiIHI9IjEuMTQiLz4mI3hhOwk8Y2lyY2xlIGNsYXNzPSJzdDIiIGN4PSI3LjIzIiBjeT0iMTIiIHI9IjEuMTQiLz4mI3hhOzwvc3ZnPg==;" vertex="1" parent="DY1giyl1airAK5G5eMEe-50">
          <mxGeometry width="22" height="30" relative="1" as="geometry">
            <mxPoint x="19" y="15" as="offset" />
          </mxGeometry>
        </mxCell>
        <mxCell id="DY1giyl1airAK5G5eMEe-52" value="" style="editableCssRules=.*;html=1;shape=image;verticalLabelPosition=bottom;labelBackgroundColor=#ffffff;verticalAlign=top;aspect=fixed;imageAspect=0;image=data:image/svg+xml,PHN2ZyB4bWxucz0iaHR0cDovL3d3dy53My5vcmcvMjAwMC9zdmciIHhtbG5zOnY9Imh0dHBzOi8vdmVjdGEuaW8vbmFubyIgd2lkdGg9IjM2MC4zMDM3NjY4NjA4MzYzIiBoZWlnaHQ9IjM3OC4wNTExNTgwNzc0MDg4IiB2aWV3Qm94PSItMC4wMDAxNjI0MjExNDM2MTM3NTU3IC0wLjAwMDEwMDAwNTk0OTIwNzExNTkyIDk1LjMzMDI2MTIzMDQ2ODc1IDEwMC4wMjYxMDAxNTg2OTE0Ij4mI3hhOzxzdHlsZSB0eXBlPSJ0ZXh0L2NzcyI+LnN0MCB7IGZpbGw6IG5vbmU7IH0gLnN0MSB7IGZpbGw6IG5vbmU7IH0gLnN0MiB7IGZpbGw6IG5vbmU7IH0gPC9zdHlsZT4mI3hhOwk8cGF0aCBjbGFzcz0ic3QwIiBkPSJNNzkuOTcxIDc3LjcxNWwtNy4zNTkgNy40ODggOC42MzkgOC40OSA3LjM1OS03LjQ4OHptLTY1LjA5Ni4wNjFsLTguNjQxIDguNDkyIDcuMzYxIDcuNDg4IDguNjM5LTguNDl6Ii8+JiN4YTsJPHBhdGggY2xhc3M9InN0MSIgZD0iTTc5LjU1My4yMjFhNS4yNSA1LjI1IDAgMCAwLTMuNjYgOC45ODRMODYuMzg5IDE5LjU4YTUuMjUgNS4yNSAwIDAgMCA4Ljk0MS0zLjc2NSA1LjI1IDUuMjUgMCAwIDAtMS41Ni0zLjcwNEw4My4yNzUgMS43MzhBNS4yNSA1LjI1IDAgMCAwIDc5LjU1My4yMjF6TTE1LjkxNiAwYTUuMjUgNS4yNSAwIDAgMC0zLjcyMyAxLjUxNkwxLjY5OSAxMS44OTFhNS4yNSA1LjI1IDAgMCAwLS4wNDMgNy40MjQgNS4yNSA1LjI1IDAgMCAwIDcuNDI0LjA0M0wxOS41NzYgOC45ODJBNS4yNSA1LjI1IDAgMCAwIDE1LjkxNiAweiIvPiYjeGE7CTxwYXRoIGNsYXNzPSJzdDAiIGQ9Ik00OC4xMzggMjYuMjRjMTMuMzQ3IDAgMjUuNDMyIDExLjEzNiAyNS4zMSAyNi40ODEgMCAxNS4xMS0xMi4yNjcgMjUuNjczLTI1LjE4OSAyNS42NzMtMTEuMTQ5IDAtMTguMzE3LTUuMTcxLTIxLjk2LTEwLjczOGwyMS44MzktMTUuMDk3eiIvPiYjeGE7CTxwYXRoIGNsYXNzPSJzdDIiIGQ9Ik04MS4yNSA5My42OTNsNC42NjQgNC41ODZhNS4yNSA1LjI1IDAgMSAwIDcuMzYxLTcuNDlsLTQuNjY2LTQuNTg0ek02LjIzNCA4Ni4yNjhMMS41NyA5MC44NTFhNS4yNSA1LjI1IDAgMCAwLS4wNjUgNy40MjQgNS4yNSA1LjI1IDAgMCAwIDcuNDI0LjA2NGw0LjY2Ni00LjU4NHpNNDcuMzcxIDUuNTc4QzIxLjM0OSA1LjU3OC4xNDYgMjYuNzc5LjE0NiA1Mi44MDFzMjEuMjAzIDQ3LjIyNSA0Ny4yMjUgNDcuMjI1IDQ3LjIyNS0yMS4yMDMgNDcuMjI1LTQ3LjIyNVM3My4zOTMgNS41NzggNDcuMzcxIDUuNTc4em0wIDEwYTM3LjE1IDM3LjE1IDAgMCAxIDM3LjIyNSAzNy4yMjNjMCAyMC42MTctMTYuNjA3IDM3LjIyNS0zNy4yMjUgMzcuMjI1UzEwLjE0NiA3My40MTggMTAuMTQ2IDUyLjgwMWEzNy4xNSAzNy4xNSAwIDAgMSAzNy4yMjUtMzcuMjIzeiIvPiYjeGE7PC9zdmc+;" vertex="1" parent="DY1giyl1airAK5G5eMEe-50">
          <mxGeometry x="18.75" y="15" width="28.5" height="30" as="geometry" />
        </mxCell>
        <mxCell id="DY1giyl1airAK5G5eMEe-2" value="" style="editableCssRules=.*;html=1;shape=image;verticalLabelPosition=bottom;labelBackgroundColor=#ffffff;verticalAlign=top;aspect=fixed;imageAspect=0;image=data:image/svg+xml,PHN2ZyB4bWxucz0iaHR0cDovL3d3dy53My5vcmcvMjAwMC9zdmciIHhtbG5zOnY9Imh0dHBzOi8vdmVjdGEuaW8vbmFubyIgd2lkdGg9IjE2LjQyMDAwMDA3NjI5Mzk0NSIgaGVpZ2h0PSIyMC4wNDk5OTkyMzcwNjA1NDciIGZpbGwtcnVsZT0iZXZlbm9kZCIgdmlld0JveD0iMCAwIDE2LjQyMDAwMDA3NjI5Mzk0NSAyMC4wNDk5OTkyMzcwNjA1NDciPiYjeGE7CTxzdHlsZSB0eXBlPSJ0ZXh0L2NzcyI+JiN4YTsJLnN0MHtmaWxsOiM0Mjg1ZjQ7fSYjeGE7CS5zdDF7ZmlsbDojNjY5ZGY2O30mI3hhOwk8L3N0eWxlPiYjeGE7CTxwYXRoIGNsYXNzPSJzdDEiIGQ9Ik04LjIxIDBMMCAzLjQydjUuNjNjMCA1LjA2IDMuNSA5LjggOC4yMSAxMSA0LjcxLTEuMTUgOC4yMS01Ljg5IDguMjEtMTAuOTVWMy40MnptMCAzLjc5YTIuNjMgMi42MyAwIDAgMSAxLjAwNSA1LjA2QTIuNjMgMi42MyAwIDAgMSA2LjM1IDQuNTZhMi42MyAyLjYzIDAgMCAxIDEuODYtLjc3em00LjExIDExLjE1YTguNjQgOC42NCAwIDAgMS00LjExIDIuOTMgOC42NCA4LjY0IDAgMCAxLTQuMTEtMi45M3YtMi4yNWMwLTEuNjcgMi43NC0yLjUyIDQuMTEtMi41MnM0LjExLjg1IDQuMTEgMi41MnoiLz4mI3hhOwk8cGF0aCBjbGFzcz0ic3QwIiBkPSJNOC4yMSAwdjMuNzlhMi42MyAyLjYzIDAgMSAxIDAgNS4yNnYxLjEyYzEuMzcgMCA0LjExLjg1IDQuMTEgMi41MnYyLjI1YTguNjQgOC42NCAwIDAgMS00LjExIDIuOTNWMjBjNC43MS0xLjE1IDguMjEtNS44OSA4LjIxLTEwLjk1VjMuNDJ6Ii8+JiN4YTs8L3N2Zz4=;" vertex="1" parent="DY1giyl1airAK5G5eMEe-50">
          <mxGeometry x="23.25" y="15" width="24" height="30" as="geometry" />
        </mxCell>
        <mxCell id="DY1giyl1airAK5G5eMEe-54" style="edgeStyle=orthogonalEdgeStyle;rounded=0;html=1;dashed=0;labelBackgroundColor=none;startArrow=none;startFill=0;startSize=4;endArrow=blockThin;endFill=1;endSize=4;strokeColor=#4284F3;strokeWidth=2;fontSize=12;exitX=0.5;exitY=1;exitDx=0;exitDy=0;entryX=0.5;entryY=0;entryDx=0;entryDy=0;" edge="1" parent="DY1giyl1airAK5G5eMEe-7" source="DY1giyl1airAK5G5eMEe-50" target="DY1giyl1airAK5G5eMEe-32">
          <mxGeometry relative="1" as="geometry">
            <Array as="points" />
            <mxPoint x="120" y="250" as="sourcePoint" />
            <mxPoint x="120" y="276" as="targetPoint" />
          </mxGeometry>
        </mxCell>
        <mxCell id="DY1giyl1airAK5G5eMEe-55" value="" style="strokeColor=#dddddd;shadow=1;strokeWidth=1;rounded=1;absoluteArcSize=1;arcSize=2;fontStyle=1" vertex="1" parent="DY1giyl1airAK5G5eMEe-7">
          <mxGeometry x="364.75" y="180" width="158.75" height="60" as="geometry" />
        </mxCell>
        <mxCell id="DY1giyl1airAK5G5eMEe-56" value="&lt;font color=&quot;#000000&quot;&gt;ETL&lt;br&gt;(Transform Data)&lt;/font&gt;&lt;br&gt;Dataflow" style="editableCssRules=.*;html=1;fontColor=#999999;shape=image;verticalLabelPosition=middle;verticalAlign=middle;labelPosition=right;align=left;spacingLeft=20;part=1;points=[];imageAspect=0;image=data:image/svg+xml,PHN2ZyB4bWxucz0iaHR0cDovL3d3dy53My5vcmcvMjAwMC9zdmciIHhtbG5zOnY9Imh0dHBzOi8vdmVjdGEuaW8vbmFubyIgd2lkdGg9IjE0LjUxOTk5OTUwNDA4OTM1NSIgaGVpZ2h0PSIyMCIgdmlld0JveD0iMCAwIDE0LjUxOTk5OTUwNDA4OTM1NSAyMCI+JiN4YTsJPHN0eWxlIHR5cGU9InRleHQvY3NzIj4mI3hhOwkuc3Qwe2ZpbGwtcnVsZTpldmVub2RkfSYjeGE7CS5zdDF7ZmlsbDojNjY5ZGY2O30mI3hhOwkuc3Qye2ZpbGw6I2FlY2JmYTt9JiN4YTsJLnN0M3tmaWxsOiM0Mjg1ZjQ7fSYjeGE7CTwvc3R5bGU+JiN4YTsJPGcgY2xhc3M9InN0MCI+JiN4YTsJCTxwYXRoIGNsYXNzPSJzdDEiIGQ9Ik03LjM3IDIuMDNsLTEuNzIuOTYgMS41MiAxLjUtLjAyIDEuNzMgMS4wMi4wMS4wMi0xLjczIDQuMjQgMi41Ni0uMDEgMS4wNyAxLjc3LjAzVjYuMTFMOS4wNSAzLjA0bC0uMjctLjk0eiIvPiYjeGE7CQk8cGF0aCBjbGFzcz0ic3QyIiBkPSJNNy4zNiAyLjAzbC0xLjQyLjM1LS4yOS42MUwuMzkgNS45Mi4zNiA3Ljk3IDIuMTQgOGwuMDItMS4wNyA0LjMxLTIuNDUtLjAyIDEuNzMuODYuMDEuMDYtNC4xOXoiLz4mI3hhOwkJPGcgY2xhc3M9InN0MSI+JiN4YTsJCQk8cGF0aCBkPSJNNy4zNiAyLjAzTDMuOTUgMCAyLjIxLjk1bDMuNDQgMi4wNCAxLjcyLS45NnptLjcxIDExLjc2bC0xLjcyLS4wMi0uMDIgMS43Mi44MiAyLjQ4IDEuNDItLjEyLjI5LS44NSA1LjI3LTIuOTMuMDMtMi4wOS0xLjc5LS4wMi0uMDIgMS4xLTQuMyAyLjQ1eiIvPiYjeGE7CQkJPHBhdGggZD0iTTcuMTUgMTcuOTdsLTMuNDYgMS45NGgtLjA1bC0xLjY2LS45OSAzLjQ5LTEuOTYgMS42OCAxLjAxeiIvPiYjeGE7CQk8L2c+JiN4YTsJCTxwYXRoIGNsYXNzPSJzdDMiIGQ9Ik0xMC44OC4wOWgtLjA1TDcuMzcgMi4wM2wxLjY4IDEuMDEgMy40OS0xLjk2ek0xMC42MiAyMGgtLjA1bC0zLjQyLTIuMDNoMCAwIDBsMS43Mi0uOTYgMy40NCAyLjA0eiIvPiYjeGE7CQk8cGF0aCBjbGFzcz0ic3QyIiBkPSJNLjMzIDEzLjg5di0yaDEuNzZsLS4wMSAxLjA0IDQuMjUgMi41Ni4wMi0xLjcyLjg2LjAxLS4wNiA0LjE4LTEuNjgtMXoiLz4mI3hhOwk8L2c+JiN4YTsJPGNpcmNsZSBjbGFzcz0ic3QyIiBjeD0iMTMuMzgiIGN5PSIxMC4wNCIgcj0iMS4xNCIvPiYjeGE7CTxjaXJjbGUgY2xhc3M9InN0MiIgY3g9IjEuMTQiIGN5PSI5Ljg4IiByPSIxLjE0Ii8+JiN4YTsJPGNpcmNsZSBjbGFzcz0ic3QyIiBjeD0iNy4zMiIgY3k9IjcuOTkiIHI9IjEuMTQiLz4mI3hhOwk8Y2lyY2xlIGNsYXNzPSJzdDIiIGN4PSI3LjIzIiBjeT0iMTIiIHI9IjEuMTQiLz4mI3hhOzwvc3ZnPg==;" vertex="1" parent="DY1giyl1airAK5G5eMEe-55">
          <mxGeometry width="22" height="30" relative="1" as="geometry">
            <mxPoint x="19" y="15" as="offset" />
          </mxGeometry>
        </mxCell>
        <mxCell id="DY1giyl1airAK5G5eMEe-57" style="edgeStyle=orthogonalEdgeStyle;rounded=0;html=1;dashed=0;labelBackgroundColor=none;startArrow=none;startFill=0;startSize=4;endArrow=blockThin;endFill=1;endSize=4;strokeColor=#4284F3;strokeWidth=2;fontSize=12;exitX=0.75;exitY=0;exitDx=0;exitDy=0;entryX=0;entryY=0.5;entryDx=0;entryDy=0;" edge="1" parent="DY1giyl1airAK5G5eMEe-7" source="DY1giyl1airAK5G5eMEe-40" target="DY1giyl1airAK5G5eMEe-55">
          <mxGeometry relative="1" as="geometry">
            <Array as="points" />
            <mxPoint x="200" y="306" as="sourcePoint" />
            <mxPoint x="245" y="306" as="targetPoint" />
          </mxGeometry>
        </mxCell>
        <mxCell id="DY1giyl1airAK5G5eMEe-58" style="edgeStyle=orthogonalEdgeStyle;rounded=0;html=1;dashed=0;labelBackgroundColor=none;startArrow=none;startFill=0;startSize=4;endArrow=blockThin;endFill=1;endSize=4;strokeColor=#4284F3;strokeWidth=2;fontSize=12;exitX=0.25;exitY=1;exitDx=0;exitDy=0;entryX=1;entryY=0.25;entryDx=0;entryDy=0;" edge="1" parent="DY1giyl1airAK5G5eMEe-7" source="DY1giyl1airAK5G5eMEe-55" target="DY1giyl1airAK5G5eMEe-40">
          <mxGeometry relative="1" as="geometry">
            <Array as="points">
              <mxPoint x="404" y="281" />
            </Array>
            <mxPoint x="324" y="276" as="sourcePoint" />
            <mxPoint x="394.75" y="280" as="targetPoint" />
          </mxGeometry>
        </mxCell>
        <mxCell id="DY1giyl1airAK5G5eMEe-64" style="edgeStyle=orthogonalEdgeStyle;rounded=0;html=1;dashed=0;labelBackgroundColor=none;startArrow=none;startFill=0;startSize=4;endArrow=blockThin;endFill=1;endSize=4;strokeColor=#4284F3;strokeWidth=2;fontSize=12;exitX=1;exitY=0.5;exitDx=0;exitDy=0;entryX=0;entryY=0.5;entryDx=0;entryDy=0;" edge="1" parent="1" source="DY1giyl1airAK5G5eMEe-40" target="DY1giyl1airAK5G5eMEe-62">
          <mxGeometry relative="1" as="geometry">
            <Array as="points">
              <mxPoint x="930" y="1186" />
              <mxPoint x="930" y="1115" />
            </Array>
            <mxPoint x="500" y="1196" as="sourcePoint" />
            <mxPoint x="545" y="1196" as="targetPoint" />
          </mxGeometry>
        </mxCell>
        <mxCell id="DY1giyl1airAK5G5eMEe-65" style="edgeStyle=orthogonalEdgeStyle;rounded=0;html=1;dashed=0;labelBackgroundColor=none;startArrow=none;startFill=0;startSize=4;endArrow=blockThin;endFill=1;endSize=4;strokeColor=#4284F3;strokeWidth=2;fontSize=12;exitX=1;exitY=0.5;exitDx=0;exitDy=0;entryX=0;entryY=0.5;entryDx=0;entryDy=0;" edge="1" parent="1" source="DY1giyl1airAK5G5eMEe-40" target="DY1giyl1airAK5G5eMEe-63">
          <mxGeometry relative="1" as="geometry">
            <Array as="points">
              <mxPoint x="930" y="1186" />
              <mxPoint x="930" y="1265" />
            </Array>
            <mxPoint x="703.75" y="1196" as="sourcePoint" />
            <mxPoint x="982.75" y="1125" as="targetPoint" />
          </mxGeometry>
        </mxCell>
      </root>
    </mxGraphModel>
  </diagram>
</mxfile>
